<?xml version="1.0" standalone="no"?>
<!DOCTYPE svg PUBLIC "-//W3C//DTD SVG 20010904//EN"
 "http://www.w3.org/TR/2001/REC-SVG-20010904/DTD/svg10.dtd">
<svg version="1.0" xmlns="http://www.w3.org/2000/svg"
 width="593.000000pt" height="593.000000pt" viewBox="0 0 593.000000 593.000000"
 preserveAspectRatio="xMidYMid meet">

<g transform="translate(0.000000,593.000000) scale(0.100000,-0.100000)"
fill="#000000" stroke="none">
<path d="M2745 5829 c-605 -41 -1198 -290 -1675 -704 -663 -577 -1028 -1454
-971 -2334 47 -724 336 -1361 846 -1866 661 -655 1593 -948 2510 -790 776 134
1466 584 1904 1243 447 671 590 1528 386 2308 -192 732 -656 1353 -1300 1741
-512 308 -1084 444 -1700 402z m445 -219 c793 -72 1500 -482 1956 -1136 258
-370 414 -797 459 -1254 90 -912 -304 -1811 -1036 -2366 -412 -312 -867 -487
-1389 -534 -666 -59 -1353 155 -1890 588 -431 349 -758 859 -895 1397 -159
624 -94 1251 190 1830 258 526 684 952 1210 1210 441 216 921 307 1395 265z"/>
<path d="M2673 5379 c-422 -49 -836 -219 -1198 -492 -103 -78 -354 -329 -432
-432 -246 -326 -391 -651 -470 -1055 -26 -128 -27 -151 -27 -435 0 -284 1
-307 27 -435 103 -524 332 -950 703 -1310 392 -380 887 -613 1429 -671 156
-18 535 -6 670 20 419 80 733 217 1065 465 122 91 365 334 457 456 247 331
384 646 464 1065 26 135 38 514 20 670 -122 1127 -1014 2027 -2136 2155 -105
12 -468 11 -572 -1z m-15 -968 c51 -10 94 -20 96 -22 2 -2 -10 -78 -26 -168
-16 -90 -27 -165 -24 -168 7 -7 78 -22 106 -23 25 0 26 3 54 163 16 89 30 165
32 168 3 5 215 -29 223 -37 3 -3 -37 -243 -54 -320 -4 -20 15 -24 488 -109
270 -49 494 -90 496 -91 3 -3 -97 -565 -102 -570 -4 -4 -380 66 -385 71 -3 2
1 41 9 85 12 77 12 82 -7 101 -16 15 -83 31 -324 75 -167 30 -308 53 -315 51
-6 -3 -28 -100 -49 -217 -35 -197 -36 -213 -21 -236 8 -13 19 -24 22 -24 13 0
638 -113 642 -116 3 -3 -58 -366 -62 -371 -1 0 -137 23 -302 53 -340 62 -360
64 -382 41 -16 -16 -92 -393 -93 -459 0 -43 36 -62 155 -83 106 -18 107 -18
102 -44 -3 -14 -18 -97 -33 -183 -32 -180 -19 -168 -144 -144 -41 8 -78 12
-81 8 -3 -4 -19 -82 -35 -174 -22 -131 -32 -168 -44 -167 -28 1 -200 36 -206
42 -3 3 8 81 25 173 17 92 29 169 27 171 -6 6 -126 27 -130 22 -2 -2 -18 -77
-34 -167 -17 -90 -33 -166 -36 -170 -8 -7 -208 26 -217 36 -3 4 7 75 22 157
15 83 28 159 29 171 0 19 -10 23 -100 39 -55 9 -100 21 -100 27 0 19 62 353
66 358 3 2 48 -3 102 -13 53 -9 99 -13 103 -9 3 4 25 113 48 242 49 280 105
593 161 899 22 124 36 229 32 233 -7 7 -158 38 -184 38 -13 0 -9 39 22 208 17
90 30 165 30 167 0 1 46 -6 102 -16 56 -10 103 -17 105 -15 3 3 63 321 63 334
0 5 40 0 128 -17z"/>
</g>
</svg>
